<svg xmlns="http://www.w3.org/2000/svg" viewBox="0 0 21 20" width="21" height="20">
	<defs>
		<clipPath clipPathUnits="userSpaceOnUse" id="cp1">
			<path d="M-67 -87L1299 -87L1299 583L-67 583Z" />
		</clipPath>
	</defs>
	<style>
		tspan { white-space:pre }
		.shp0 { fill: #979797 } 
	</style>
	<g id="TO DO" clip-path="url(#cp1)">
		<g id="TO DO">
			<g id="side">
				<g id="to do">
					<path id="Combined Shape" class="shp0" d="M11,0c5.52,0 10,4.48 10,10c0,5.52 -4.48,10 -10,10c-5.52,0 -10,-4.48 -10,-10c0,-5.52 4.48,-10 10,-10zM10.58,9.58v-4.03h-4.03v4.03c2.01,0 4.03,0 4.03,0zM10.58,14.43v-4.03h-4.03v4.03zM15.43,14.43v-4.03h-4.03v4.03zM15.43,9.58v-4.03h-4.03v4.03z" />
				</g>
			</g>
		</g>
	</g>
</svg>